<svg xmlns="http://www.w3.org/2000/svg" width="15" height="15" viewBox="0 0 15 15">
  <path id="Path_60" data-name="Path 60" d="M144.233,4.049a.2.2,0,0,0-.005-.03c-.014-.02.018,0-.049-.1h0l-.012-.015a.126.126,0,0,0-.052-.038.137.137,0,0,0-.073-.018l-.013,0a.137.137,0,0,0-.032.006.69.69,0,0,0-.141.059A23.381,23.381,0,0,1,139.272,5.6a37.165,37.165,0,0,1-1.709-3.715c-.21-.53-.369-.965-.478-1.269-.055-.152-.1-.269-.126-.353-.015-.042-.027-.074-.037-.1A.255.255,0,0,0,136.9.123a.174.174,0,0,0-.019-.035A.173.173,0,0,0,136.739,0c-.138.023-.131.078-.15.088a1.139,1.139,0,0,0-.085.205A38.819,38.819,0,0,1,134.2,5.6a22.511,22.511,0,0,1-3.245-1.079c-.443-.185-.8-.351-1.049-.469l-.294-.141a.6.6,0,0,0-.15-.061h0a.2.2,0,0,0-.032,0h0a.12.12,0,0,0-.07.017l-.019.011a.247.247,0,0,0-.046.043.175.175,0,0,0-.035.059.259.259,0,0,0-.022.1.092.092,0,0,1,0,.017.943.943,0,0,0,.052.236,42.142,42.142,0,0,1,1.386,6.2c.348,1.787.946,3.41,2.17,4.1a2.59,2.59,0,0,0,1.342.365,3.373,3.373,0,0,0,2.551-1.294A3.366,3.366,0,0,0,139.287,15a2.6,2.6,0,0,0,1.347-.366c1.219-.691,1.817-2.315,2.163-4.087a41.288,41.288,0,0,1,.908-4.512c.146-.563.275-1.015.369-1.333.046-.159.083-.284.111-.375a1.575,1.575,0,0,0,.045-.172.277.277,0,0,0,.007-.062h0A.192.192,0,0,0,144.233,4.049Zm-5.108,2.141A7.788,7.788,0,0,1,140,9.43a3.982,3.982,0,0,1-.167,1.166,3.443,3.443,0,0,1-2.649,2.508,5.638,5.638,0,0,0,.829-2.968,4.914,4.914,0,0,0-.29-1.712,3.8,3.8,0,0,0-.687-1.2,5.385,5.385,0,0,1,2.007-1.076h0l.053-.013Zm-4.75-.054.045.011a5.393,5.393,0,0,1,2.016,1.079,3.829,3.829,0,0,0-.691,1.205,4.91,4.91,0,0,0-.287,1.705,5.63,5.63,0,0,0,.83,2.968,3.438,3.438,0,0,1-2.648-2.5,3.991,3.991,0,0,1-.169-1.171,7.791,7.791,0,0,1,.881-3.251Zm3,2.49a4.324,4.324,0,0,1,.254,1.51,5,5,0,0,1-.9,2.885,4.992,4.992,0,0,1-.9-2.886,4.346,4.346,0,0,1,.252-1.5,3.3,3.3,0,0,1,.646-1.1A3.276,3.276,0,0,1,137.379,8.626ZM136.734.818l0-.006a38.993,38.993,0,0,0,2.132,4.9A5.563,5.563,0,0,0,136.737,6.9,5.566,5.566,0,0,0,134.6,5.71,37.824,37.824,0,0,0,136.25,2.1C136.463,1.566,136.624,1.125,136.734.818ZM133,14.2c-1.054-.587-1.622-2.041-1.957-3.766a41.674,41.674,0,0,0-.916-4.547c-.148-.57-.28-1.03-.375-1.351l-.012-.041a23.392,23.392,0,0,0,4.234,1.548,8.219,8.219,0,0,0-.887,3.392,4.587,4.587,0,0,0,.193,1.338,3.831,3.831,0,0,0,2.983,2.816,2.958,2.958,0,0,1-2.08.931A2.281,2.281,0,0,1,133,14.2Zm9.421-3.752c-.332,1.711-.9,3.164-1.95,3.748a2.289,2.289,0,0,1-1.188.324,2.957,2.957,0,0,1-2.081-.932,3.833,3.833,0,0,0,2.986-2.822,4.606,4.606,0,0,0,.19-1.333,8.215,8.215,0,0,0-.886-3.391,22.868,22.868,0,0,0,3.139-1.057c.449-.188.811-.356,1.063-.476l.033-.015A42.258,42.258,0,0,0,142.424,10.445Z" transform="translate(-129.236)" fill="#e27866"/>
</svg>
